#!OML:ASF E:\Steps\Project 1\Capture day 1\Session 2\Subject.ASF
:FULLY-SPECIFIED
:DEGREES
175
root 2.06286 17.5203 18.7563 -144.27 -0.348341 -174.663
lowerback -21.4652 -0.168967 4.84181
upperback 1.27492 -1.62903 2.73888
thorax 13.5238 -0.430846 -0.174841
lowerneck -3.14564 -4.04503 0.598812
upperneck 20.2925 -4.49074 0.54948
head 6.68366 -1.6212 -0.167673
rclavicle 1.44119e-014 1.71949e-014
rhumerus -34.1071 -8.79486 -75.1044
rradius 47.6475
rwrist -6.76665
rhand -8.0874 -53.4271
rfingers 7.12502
rthumb 17.8247 -82.6302
lclavicle 1.44119e-014 1.71949e-014
lhumerus -29.3448 -0.315067 80.3518
lradius 37.4635
lwrist 0.650367
lhand -23.1578 -14.9972
lfingers 7.12502
lthumb 3.29071 14.9571
rfemur -66.246 6.02607 20.2859
rtibia 44.6804
rfoot -21.6668 -3.74523
rtoes -23.5382
lfemur -33.8689 -8.63239 1.89812
ltibia 15.1628
lfoot 17.0251 16.282
ltoes -23.0552
176
root 2.11034 17.587 18.7284 -144.127 -0.678061 -174.83
lowerback -21.5178 -0.278539 4.86808
upperback 1.14335 -1.77464 2.82058
thorax 13.3967 -0.497133 -0.14526
lowerneck -2.72276 -3.85313 0.36963
upperneck 20.0791 -4.18602 0.55656
head 6.54648 -1.49061 -0.0981377
rclavicle -1.54058e-015 -1.09332e-015
rhumerus -34.1187 -8.37881 -74.9459
rradius 47.8858
rwrist -6.82946
rhand -8.1739 -53.2748
rfingers 7.12502
rthumb 17.7415 -82.4854
lclavicle -1.54058e-015 -1.09332e-015
lhumerus -29.707 -0.0039432 80.2567
lradius 37.4376
lwrist 0.794671
lhand -22.964 -15.2601
lfingers 7.12502
lthumb 3.47789 14.6912
rfemur -65.4778 5.81621 20.4258
rtibia 43.2796
rfoot -21.3176 -3.63006
rtoes -22.146
lfemur -34.292 -8.8045 2.12826
ltibia 15.0916
lfoot 17.9583 16.7649
ltoes -19.1948
177
root 2.15561 17.6499 18.717 -144.048 -0.457469 -175.368
lowerback -21.3388 -0.0760473 4.41491
upperback 1.17295 -1.36158 2.50394
thorax 13.3423 -0.337987 -0.114092
lowerneck -2.78928 -4.02218 0.62844
upperneck 19.8562 -4.49672 0.714631
head 6.48489 -1.62131 -0.111057
rclavicle 3.8763e-015 2.90226e-014
rhumerus -34.111 -8.95416 -74.8398
rradius 48.2419
rwrist -6.88547
rhand -8.42813 -52.8983
rfingers 7.12502
rthumb 17.4969 -82.1309
lclavicle 3.8763e-015 2.90226e-014
lhumerus -29.2682 -0.640662 80.1374
lradius 37.115
lwrist 1.12591
lhand -22.9317 -15.4895
lfingers 7.12502
lthumb 3.5091 14.4614
rfemur -65.0119 5.7112 19.9071
rtibia 42.2881
rfoot -20.9418 -3.58631
rtoes -21.272
lfemur -34.6843 -8.72053 1.53161
ltibia 15.2798
lfoot 18.6954 17.0214
ltoes -18.0021
178
root 2.20458 17.7046 18.7324 -144.039 0.655056 -176.405
lowerback -20.8615 0.0891373 3.04259
upperback 1.2528 -0.759078 2.07134
thorax 13.1855 -0.161376 0.367884
lowerneck -3.2327 -4.2532 0.50322
upperneck 19.9898 -4.85103 0.844492
head 6.61262 -1.79405 -0.0821085
rclavicle 6.65929e-015 -2.48481e-014
rhumerus -33.7691 -9.40899 -74.6621
rradius 48.4406
rwrist -6.97237
rhand -8.41506 -53.1326
rfingers 7.12502
rthumb 17.5094 -82.364
lclavicle 6.65929e-015 -2.48481e-014
lhumerus -28.8787 -0.805272 80.16
lradius 36.9497
lwrist 1.11203
lhand -22.8517 -15.1119
lfingers 7.12502
lthumb 3.58629 14.8377
rfemur -65.0719 5.9216 18.4043
rtibia 41.9225
rfoot -20.5511 -3.5053
rtoes -20.0093
lfemur -35.0099 -8.50103 -0.0186256
ltibia 15.7657
lfoot 19.0671 17.4258
ltoes -20.3388
179
root 2.25613 17.7753 18.6948 -144.596 0.363892 -176.768
lowerback -20.0639 -0.0533793 2.64967
upperback 1.30073 -0.843123 2.1883
thorax 12.7854 -0.241077 0.693435
lowerneck -3.43179 -4.41038 0.236164
upperneck 20.3474 -5.01103 0.809734
head 6.76944 -1.8774 -0.0655562
rclavicle 3.18055e-015 5.56597e-015
rhumerus -33.786 -9.28703 -74.3146
rradius 48.8167
rwrist -6.87929
rhand -7.88371 -54.2245
rfingers 7.12502
rthumb 18.0207 -83.4096
lclavicle 3.18055e-015 5.56597e-015
lhumerus -29.24 -0.563594 80.3249
lradius 37.0039
lwrist 1.07799
lhand -22.5365 -14.8037
lfingers 7.12502
lthumb 3.8907 15.1406
rfemur -63.4845 5.71347 18.3418
rtibia 40.4835
rfoot -20.2266 -3.61721
rtoes -18.8514
lfemur -34.7616 -8.74669 -0.382862
ltibia 16.0121
lfoot 19.4543 17.0841
ltoes -24.6805
180
root 2.3048 17.8425 18.6726 -144.996 0.326436 -177.396
lowerback -19.2222 -0.235147 2.01865
upperback 1.23103 -0.903191 2.07015
thorax 12.2243 -0.318306 0.897682
lowerneck -3.30365 -4.38788 0.298805
upperneck 20.4355 -4.95884 0.797563
head 6.77307 -1.83878 -0.0733122
rclavicle 1.19271e-015 9.93923e-015
rhumerus -33.9181 -9.0613 -74.292
rradius 48.9626
rwrist -7.18395
rhand -8.66921 -53.2694
rfingers 7.12502
rthumb 17.2648 -82.5225
lclavicle 1.19271e-015 9.93923e-015
lhumerus -29.6964 -0.458609 80.1748
lradius 37.019
lwrist 1.21325
lhand -22.3277 -14.8932
lfingers 7.12502
lthumb 4.09237 15.0472
rfemur -62.2287 5.3801 17.9272
rtibia 39.1636
rfoot -19.7916 -3.86589
rtoes -19.6012
lfemur -34.8058 -8.90372 -1.14274
ltibia 16.4339
lfoot 19.6679 16.3291
ltoes -27.1648
181
root 2.34867 17.9085 18.6577 -145.307 0.445424 -178.112
lowerback -19.1824 -0.251467 1.35411
upperback 1.59403 -0.779535 1.77026
thorax 12.6207 -0.306878 0.97955
lowerneck -3.32499 -4.2903 0.677952
upperneck 20.0477 -4.90732 0.822931
head 6.6422 -1.80509 -0.123418
rclavicle -6.75868e-015 2.5842e-014
rhumerus -33.3596 -9.43895 -74.4276
rradius 49.1576
rwrist -7.20518
rhand -8.58171 -53.6621
rfingers 7.12502
rthumb 17.3491 -82.9078
lclavicle -6.75868e-015 2.5842e-014
lhumerus -29.3003 -0.762235 79.9821
lradius 36.9397
lwrist 1.41346
lhand -22.2896 -14.8539
lfingers 7.12502
lthumb 4.1291 15.0858
rfemur -61.1411 5.11998 17.2931
rtibia 37.8736
rfoot -19.2193 -4.25182
rtoes -21.3773
lfemur -35.0638 -8.96162 -2.13685
ltibia 17.2294
lfoot 19.5788 15.16
ltoes -30.645
